<?xml version="1.0" encoding="UTF-8"?>
<!-- Generated by Pixelmator Pro 3.5.7 -->
<svg width="3125" height="2083" viewBox="0 0 3125 2083" xmlns="http://www.w3.org/2000/svg">
    <g id="BACKGROUND">
        <path id="Path" fill="#f4e5d4" stroke="none" d="M 3125.000244 -0.333252 L 3125.000244 2083 L -0.000382 2083 L -0.000382 -0.333252 L 3125.000244 -0.333252 Z"/>
    </g>
    <g id="Group">
        <g id="OBJECTS">
            <g id="g1">
                <path id="path1" fill="#6f56c2" stroke="none" d="M 1735.437622 358.150757 L 1735.437622 1481.690063 L 1917.485229 1481.690063 L 1917.485229 358.150757 L 1735.437622 358.150757 Z M 1789.351074 538.266724 L 1773.614136 538.266724 L 1773.614136 408.21582 L 1789.351074 408.21582 L 1789.351074 538.266724 Z M 1834.329834 538.266724 L 1818.593994 538.266724 L 1818.593994 408.21582 L 1834.329834 408.21582 L 1834.329834 538.266724 Z M 1879.309692 538.266724 L 1863.572876 538.266724 L 1863.572876 408.21582 L 1879.309692 408.21582 L 1879.309692 538.266724 Z"/>
                <g id="g2">
                    <path id="path2" fill="#6f56c2" stroke="none" d="M 1500.757446 1472.348755 L 1302.380005 1472.348755 L 1302.380005 532.515015 L 1500.757446 532.515015 L 1500.757446 1472.348755 Z"/>
                    <path id="path3" fill="#6f56c2" stroke="none" d="M 1483.011475 612.496582 L 1321.159546 612.496582 L 1321.159546 483.640869 C 1321.159546 438.946655 1357.390991 402.714966 1402.084961 402.714966 L 1402.084961 402.714966 C 1446.780029 402.714966 1483.011475 438.946655 1483.011475 483.640869 L 1483.011475 612.496582 Z"/>
                </g>
                <g id="g3">
                    <path id="path4" fill="#6f56c2" stroke="none" d="M 2328.29248 876.364624 L 2334.755127 871.896729 C 2334.755127 871.896729 2334.067383 852.51123 2333.378662 849.76123 C 2332.899658 848.042847 2327.331055 845.224609 2323.205078 843.368408 C 2322.517578 828.245361 2320.79834 799.85498 2318.806641 801.917114 C 2316.812744 803.910767 2316.262451 829.138794 2316.055908 843.162109 C 2311.933105 845.087158 2306.088867 847.974243 2305.606689 849.76123 C 2304.921143 852.51123 2304.233398 871.896729 2304.233398 871.896729 L 2310.696045 876.364624 C 2310.696045 876.364624 2291.583984 1248.257813 2136.641113 1484.248779 C 2251.095215 1484.248779 2251.095215 1484.248779 2251.095215 1484.248779 C 2251.095215 1484.248779 2251.095215 1355.495361 2310.696045 1355.495361 C 2313.857666 1355.495361 2325.130859 1355.495361 2328.29248 1355.495361 C 2387.893311 1355.495361 2387.893311 1484.248779 2387.893311 1484.248779 C 2387.893311 1484.248779 2387.893311 1484.248779 2502.27832 1484.248779 C 2347.334473 1248.257813 2328.29248 876.364624 2328.29248 876.364624 Z M 2340.803711 1254.23877 L 2298.183838 1254.23877 L 2298.183838 1223.717529 C 2298.183838 1211.962158 2307.669678 1202.407227 2319.493164 1202.407227 C 2325.405518 1202.407227 2330.699219 1204.813721 2334.547607 1208.662842 C 2338.396729 1212.511719 2340.803711 1217.873779 2340.803711 1223.717529 L 2340.803711 1254.23877 Z"/>
                    <path id="path5" fill="#6f56c2" stroke="none" d="M 2386.54126 1167.35083 L 2252.432861 1167.35083 L 2252.432861 1143.023682 L 2386.54126 1143.023682 L 2386.54126 1167.35083 Z"/>
                    <path id="path6" fill="#6f56c2" stroke="none" d="M 2425.322021 1295.364258 L 2213.651123 1295.364258 L 2213.651123 1261.83667 L 2425.322021 1261.83667 L 2425.322021 1295.364258 Z"/>
                </g>
            </g>
            <g id="g4">
                <g id="g5">
                    <path id="path7" fill="#4226ab" stroke="none" d="M 465.407928 1393.635864 C 290.882996 1393.635864 148.89386 1251.647217 148.89386 1077.118408 C 148.89386 902.5896 290.882996 760.60083 465.407928 760.60083 C 639.935913 760.60083 781.925049 902.5896 781.925049 1077.118408 C 781.925049 1251.647217 639.935913 1393.635864 465.407928 1393.635864 Z M 465.407928 776.023315 C 299.384186 776.023315 164.316437 911.091675 164.316437 1077.118408 C 164.316437 1243.14502 299.384186 1378.213379 465.407928 1378.213379 C 631.430664 1378.213379 766.502502 1243.14502 766.502502 1077.118408 C 766.502502 911.091675 631.430664 776.023315 465.407928 776.023315 Z"/>
                    <path id="path8" fill="#4226ab" stroke="none" d="M 444.24704 1422.673828 C 433.602509 1422.056274 425.506195 1412.952148 426.199982 1402.311279 L 426.199982 1402.311279 C 426.817444 1391.67041 435.917786 1383.574951 446.558258 1384.192505 L 446.558258 1384.192505 C 457.1987 1384.885498 465.298065 1393.982544 464.680603 1404.623047 L 464.680603 1404.623047 C 464.063141 1414.804443 455.580261 1422.749146 445.402649 1422.749146 L 445.402649 1422.749146 C 445.018127 1422.749146 444.630554 1422.749146 444.24704 1422.673828 Z M 502.156189 1402.544678 C 500.383118 1392.054565 507.402161 1382.106689 517.888 1380.337158 L 517.888 1380.337158 C 528.374878 1378.484619 538.400879 1385.578369 540.174988 1396.068359 L 540.174988 1396.068359 C 541.948059 1406.550781 534.930054 1416.498779 524.443176 1418.275757 L 524.443176 1418.275757 C 523.362854 1418.509644 522.207275 1418.584717 521.125916 1418.584717 L 521.125916 1418.584717 C 511.950287 1418.584717 503.775665 1411.950439 502.156189 1402.544678 Z M 365.12616 1408.561646 C 354.949554 1405.474121 349.240753 1394.757935 352.249786 1384.57666 L 352.249786 1384.57666 C 355.333069 1374.395508 366.128143 1368.611694 376.309845 1371.699585 L 376.309845 1371.699585 L 376.309845 1371.699585 L 376.309845 1371.699585 C 386.487457 1374.704102 392.270538 1385.50293 389.186218 1395.684082 L 389.186218 1395.684082 C 386.720398 1404.012939 379.009613 1409.405029 370.755646 1409.405029 L 370.755646 1409.405029 C 368.907288 1409.405029 367.054871 1409.179199 365.12616 1408.561646 Z M 576.260986 1385.42749 C 572.022095 1375.630371 576.570251 1364.22168 586.363342 1360.057129 L 586.363342 1360.057129 L 586.363342 1360.057129 L 586.363342 1360.057129 C 596.157471 1355.892822 607.494751 1360.441284 611.658325 1370.230835 L 611.658325 1370.230835 C 615.898254 1380.02832 611.350098 1391.361694 601.557007 1395.526123 L 601.557007 1395.526123 C 599.09021 1396.603027 596.465698 1397.070068 593.999878 1397.070068 L 593.999878 1397.070068 C 586.442688 1397.070068 579.348389 1392.672119 576.260986 1385.42749 Z M 291.485199 1376.481201 L 291.485199 1376.556641 C 282.230255 1371.157227 279.145935 1359.364136 284.466156 1350.18457 L 284.466156 1350.18457 C 289.865753 1340.929688 301.662811 1337.849609 310.83844 1343.241211 L 310.83844 1343.241211 C 320.093414 1348.56543 323.177704 1360.365845 317.857483 1369.53833 L 317.857483 1369.53833 C 314.230988 1375.705811 307.755157 1379.102173 301.123688 1379.102173 L 301.123688 1379.102173 C 297.885773 1379.102173 294.494232 1378.250854 291.485199 1376.481201 Z M 644.277588 1351.495117 C 637.952271 1342.932373 639.729431 1330.830811 648.287598 1324.505371 L 648.287598 1324.505371 C 656.846741 1318.179688 668.952026 1320.031982 675.277344 1328.519043 L 675.277344 1328.519043 C 681.599548 1337.07373 679.825439 1349.182983 671.267334 1355.508789 L 671.267334 1355.508789 C 667.79541 1358.046631 663.7854 1359.281616 659.775391 1359.281616 L 659.775391 1359.281616 C 653.917053 1359.281616 648.054626 1356.585449 644.277588 1351.495117 Z M 227.1745 1328.36084 C 219.462708 1321.033813 219.15448 1308.849121 226.477692 1301.0625 L 226.477692 1301.0625 C 233.804962 1293.351318 245.989609 1293.04248 253.775665 1300.369995 L 253.775665 1300.369995 C 253.775665 1300.369995 253.775665 1300.369995 253.700378 1300.369995 L 253.700378 1300.369995 C 261.41217 1307.697144 261.795685 1319.881592 254.468414 1327.592896 L 254.468414 1327.592896 C 250.692368 1331.599121 245.601013 1333.602051 240.43541 1333.602051 L 240.43541 1333.602051 C 235.732651 1333.602051 230.950546 1331.907959 227.1745 1328.36084 Z M 702.650574 1302.839966 C 694.555298 1295.972168 693.553284 1283.787476 700.414673 1275.692139 L 700.414673 1275.692139 C 707.278076 1267.52124 719.462708 1266.52002 727.557983 1273.380493 L 727.557983 1273.380493 C 735.732666 1280.323364 736.734619 1292.425049 729.873291 1300.603271 L 729.873291 1300.603271 C 726.017883 1305.076294 720.618286 1307.388428 715.14447 1307.388428 L 715.14447 1307.388428 C 710.749939 1307.388428 706.2771 1305.919922 702.650574 1302.839966 Z M 175.660828 1266.74585 C 169.877747 1257.799561 172.343567 1245.848267 181.210968 1239.989502 L 181.210968 1239.989502 C 190.1577 1234.206177 202.112457 1236.67627 207.895538 1245.539551 L 207.895538 1245.539551 C 213.754913 1254.48584 211.288071 1266.437012 202.416611 1272.303345 L 202.416611 1272.303345 C 199.103424 1274.381714 195.477936 1275.383301 191.855499 1275.383301 L 191.855499 1275.383301 C 185.530212 1275.383301 179.36261 1272.378662 175.660828 1266.74585 Z M 748.380127 1242.150879 C 738.895264 1237.293701 735.039917 1225.726563 739.897278 1216.238281 L 739.897278 1216.238281 C 744.754639 1206.75708 756.320801 1202.901611 765.805664 1207.758789 L 765.805664 1207.758789 C 775.290527 1212.615723 779.071655 1224.182983 774.289551 1233.663818 L 774.289551 1233.663818 C 770.897034 1240.373779 764.111938 1244.229248 757.092896 1244.229248 L 757.092896 1244.229248 C 754.164246 1244.229248 751.155212 1243.536621 748.380127 1242.150879 Z M 139.725372 1194.798706 L 139.725372 1194.798706 C 136.102936 1184.775391 141.269562 1173.750854 151.292542 1170.128296 L 151.292542 1170.128296 C 161.319611 1166.498779 172.343567 1171.664551 175.970078 1181.695313 L 175.970078 1181.695313 C 179.592514 1191.71875 174.425888 1202.743408 164.402893 1206.365479 L 164.402893 1206.365479 C 162.241241 1207.141357 160.00531 1207.525391 157.847717 1207.525391 L 157.847717 1207.525391 C 149.98233 1207.525391 142.578766 1202.667969 139.725372 1194.798706 Z M 778.837708 1172.515869 C 768.430176 1169.970459 762.104919 1159.638306 764.574829 1149.231201 L 764.574829 1149.231201 L 764.574829 1149.231201 L 764.574829 1149.231201 C 767.040649 1138.891602 777.452209 1132.490845 787.784424 1135.035767 L 787.784424 1135.035767 C 798.115662 1137.505859 804.517212 1147.91333 802.050415 1158.25293 L 802.050415 1158.25293 C 799.889771 1167.116211 792.027405 1173.057861 783.310547 1173.057861 L 783.310547 1173.057861 C 781.846741 1173.057861 780.306641 1172.899658 778.837708 1172.515869 Z M 121.448387 1116.533325 L 121.448387 1116.533325 C 120.217514 1105.967896 127.84996 1096.404297 138.415146 1095.252075 L 138.415146 1095.252075 C 148.980331 1094.01709 158.540466 1101.645508 159.700134 1112.210815 L 159.700134 1112.210815 L 159.700134 1112.210815 L 159.700134 1112.210815 C 160.931015 1122.776245 153.299591 1132.340088 142.733383 1133.499512 L 142.733383 1133.499512 C 142.040634 1133.574951 141.269562 1133.650391 140.572739 1133.650391 L 140.572739 1133.650391 C 130.857971 1133.650391 122.528709 1126.405762 121.448387 1116.533325 Z M 792.257324 1097.7146 C 781.615845 1097.63916 772.978333 1089.001709 773.054626 1078.36084 L 773.054626 1078.36084 C 773.054626 1078.127441 773.054626 1077.976685 773.054626 1077.743408 L 773.054626 1077.743408 C 773.054626 1077.51001 773.054626 1077.359131 773.054626 1077.125854 L 773.054626 1077.125854 C 773.054626 1066.485107 781.692139 1057.847534 792.332581 1057.847534 L 792.332581 1057.847534 C 802.977112 1057.847534 811.610535 1066.485107 811.610535 1077.125854 L 811.610535 1077.125854 C 811.610535 1077.359131 811.610535 1077.592896 811.610535 1077.818726 L 811.610535 1077.818726 C 811.610535 1078.052002 811.610535 1078.2854 811.610535 1078.511597 L 811.610535 1078.511597 C 811.535278 1089.159668 802.977112 1097.7146 792.332581 1097.7146 L 792.332581 1097.7146 L 792.257324 1097.7146 Z M 138.494492 1057.614258 C 127.928291 1056.386597 120.372139 1046.822998 121.603012 1036.257446 L 121.603012 1036.257446 C 122.837959 1025.692017 132.402161 1018.138672 142.963287 1019.366211 L 142.963287 1019.366211 C 153.528473 1020.601196 161.085632 1030.165405 159.850693 1040.730347 L 159.850693 1040.730347 C 159.850693 1040.730347 159.850693 1040.730347 159.850693 1040.805908 L 159.850693 1040.805908 C 158.694077 1050.603271 150.365829 1057.772461 140.726349 1057.772461 L 140.726349 1057.772461 C 140.034607 1057.772461 139.262512 1057.772461 138.494492 1057.614258 Z M 764.883057 1006.18042 L 764.883057 1006.18042 L 764.883057 1006.18042 C 762.413147 995.848267 768.814697 985.441284 779.225281 982.971313 L 779.225281 982.971313 C 789.557495 980.58374 799.889771 986.984985 802.359619 997.31665 L 802.359619 997.31665 C 804.825439 1007.724243 798.349609 1018.056274 788.017395 1020.526245 L 788.017395 1020.526245 C 786.5495 1020.909912 785.084656 1021.068359 783.619812 1021.068359 L 783.619812 1021.068359 C 774.827698 1021.068359 766.965332 1015.05127 764.883057 1006.18042 Z M 151.680115 982.820435 C 141.653061 979.115356 136.565781 968.090942 140.188217 958.067505 L 140.188217 958.067505 C 143.889999 948.119507 154.91803 942.953735 164.941025 946.575928 L 164.941025 946.575928 C 174.968079 950.273315 180.055359 961.305786 176.432922 971.328857 L 176.432922 971.328857 C 173.578522 979.115356 166.175964 983.972534 158.310577 983.972534 L 158.310577 983.972534 C 156.074646 983.972534 153.917053 983.588745 151.680115 982.820435 Z M 740.435425 939.0979 C 735.657349 929.609619 739.512756 917.967041 748.99762 913.260498 L 748.99762 913.260498 C 758.557739 908.40332 770.124939 912.259155 774.907043 921.747559 L 774.907043 921.747559 C 779.689148 931.303711 775.832764 942.870728 766.3479 947.652466 L 766.3479 947.652466 C 763.569763 949.045898 760.564819 949.73877 757.710388 949.73877 L 757.710388 949.73877 C 750.617065 949.73877 743.832031 945.799927 740.435425 939.0979 Z M 181.907776 913.0271 C 173.04039 907.168457 170.570496 895.217407 176.432922 886.346191 L 176.432922 886.346191 C 182.29129 877.48291 194.247055 875.012939 203.188705 880.871704 L 203.188705 880.871704 C 212.056091 886.813354 214.447662 898.76416 208.588287 907.635498 L 208.588287 907.635498 L 208.588287 907.635498 L 208.588287 907.635498 C 204.887512 913.260498 198.795197 916.272949 192.548248 916.272949 L 192.548248 916.272949 C 188.847473 916.272949 185.145691 915.188232 181.907776 913.0271 Z M 701.186768 879.485718 C 694.322327 871.31543 695.402649 859.130859 703.497925 852.262939 L 703.497925 852.262939 C 711.672607 845.477905 723.857239 846.479614 730.720642 854.657593 L 730.720642 854.657593 C 737.506714 862.828369 736.504761 874.9375 728.330078 881.797852 L 728.330078 881.797852 C 724.70459 884.885498 720.310059 886.346191 715.915527 886.346191 L 715.915527 886.346191 C 710.441711 886.346191 704.966858 883.959106 701.186768 879.485718 Z M 227.403381 852.1875 C 220.077133 844.400879 220.463684 832.216675 228.175476 824.9646 L 228.175476 824.88916 C 235.962555 817.644897 248.146179 818.028687 255.47345 825.740356 L 255.47345 825.740356 C 262.722382 833.526733 262.413147 845.711182 254.623032 853.038696 L 254.623032 853.038696 L 254.623032 853.038696 L 254.623032 853.038696 C 250.921249 856.51001 246.144226 858.280029 241.437408 858.280029 L 241.437408 858.280029 C 236.270782 858.280029 231.18045 856.201294 227.403381 852.1875 Z M 649.289551 830.439209 C 640.730408 824.03833 638.957336 811.936646 645.35791 803.449585 L 645.35791 803.449585 C 651.680115 794.89502 663.7854 793.11792 672.347656 799.518799 L 672.347656 799.518799 C 680.827454 805.919556 682.600525 817.953735 676.203003 826.508301 L 676.203003 826.508301 C 672.422913 831.599121 666.639832 834.219604 660.780457 834.219604 L 660.780457 834.219604 C 656.770447 834.219604 652.682129 832.984619 649.289551 830.439209 Z M 285.622772 803.374512 C 280.302551 794.119263 283.465179 782.326172 292.640808 777.002563 L 292.640808 777.002563 C 301.895782 771.685913 313.692841 774.841309 319.013092 784.096191 L 319.013092 784.096191 C 324.333313 793.275757 321.174744 805.068848 311.919769 810.392944 L 311.919769 810.392944 C 308.910736 812.169922 305.597565 813.013306 302.35965 813.013306 L 302.35965 813.013306 C 295.649841 813.013306 289.169952 809.541992 285.622772 803.374512 Z M 587.52301 794.661621 L 587.52301 794.661621 L 587.52301 794.661621 C 577.729919 790.421631 573.25708 779.088257 577.495972 769.290894 L 577.495972 769.290894 C 581.660583 759.501221 593.07312 755.027954 602.791992 759.267822 L 602.867249 759.267822 C 612.585083 763.507568 617.054871 774.841309 612.814941 784.562866 L 612.814941 784.562866 C 609.731689 791.882935 602.637329 796.205444 595.155457 796.205444 L 595.155457 796.205444 C 592.610291 796.205444 589.989868 795.738281 587.52301 794.661621 Z M 353.559998 769.21582 C 350.475677 759.034546 356.338104 748.24292 366.516754 745.230835 L 366.516754 745.230835 C 376.693329 742.226196 387.488434 748.009521 390.497467 758.190918 L 390.497467 758.190918 C 393.505463 768.440063 387.722382 779.163818 377.544769 782.168457 L 377.544769 782.168457 C 375.692352 782.710449 373.839935 783.019165 371.99057 783.019165 L 371.99057 783.019165 C 363.740662 783.019165 356.029877 777.544556 353.559998 769.21582 Z M 519.122925 774.148438 C 508.637115 772.295776 501.693329 762.272461 503.545746 751.790039 L 503.545746 751.790039 C 505.319855 741.300049 515.342834 734.28125 525.832764 736.133789 L 525.832764 736.133789 C 536.31958 737.986206 543.337646 748.009521 541.485229 758.492065 L 541.485229 758.492065 C 539.865723 767.829956 531.692139 774.457153 522.515503 774.457153 L 522.515503 774.457153 C 521.435181 774.457153 520.279541 774.306274 519.122925 774.148438 Z M 427.513245 751.790039 C 426.895782 741.141724 435.070404 732.045044 445.710876 731.427124 L 445.710876 731.427124 C 456.277069 730.80957 465.373352 738.987915 465.990814 749.628784 L 465.990814 749.628784 C 466.608307 760.269653 458.513 769.366211 447.868469 769.908325 L 447.868469 769.908325 C 447.484955 769.983765 447.097382 769.983765 446.71286 769.983765 L 446.71286 769.983765 C 436.610535 769.983765 428.127655 762.046631 427.513245 751.790039 Z"/>
                    <path id="path9" fill="#4226ab" stroke="none" d="M 507.605621 1077.117188 C 507.605621 1053.812134 488.714203 1034.919922 465.408966 1034.919922 C 442.104706 1034.919922 423.212311 1053.812134 423.212311 1077.117188 C 423.212311 1100.421753 442.104706 1119.313721 465.408966 1119.313721 C 488.714203 1119.313721 507.605621 1100.421753 507.605621 1077.117188 Z"/>
                    <path id="path10" fill="#4226ab" stroke="none" d="M 271.450409 1483.949951 L 257.646301 1477.082153 L 465.532043 1059.572021 L 666.177002 1477.180054 L 652.275208 1483.852051 L 465.283844 1094.664551 L 271.450409 1483.949951 Z"/>
                    <path id="path11" fill="#4226ab" stroke="none" d="M 470.10968 1388.674072 L 460.704163 1388.674072 L 460.704163 765.555054 L 470.10968 765.555054 L 470.10968 1388.674072 Z"/>
                    <path id="path12" fill="#4226ab" stroke="none" d="M 567.55127 1371.497559 L 354.430756 785.955322 L 363.266632 782.740845 L 576.388184 1368.282959 L 567.55127 1371.497559 Z"/>
                    <path id="path13" fill="#4226ab" stroke="none" d="M 662.077454 1318.810791 L 261.540344 841.471313 L 268.741486 835.42749 L 669.278564 1312.76709 L 662.077454 1318.810791 Z"/>
                    <path id="path14" fill="#4226ab" stroke="none" d="M 732.877197 1236.970459 L 193.238953 925.40625 L 197.941711 917.267944 L 737.579956 1228.832031 L 732.877197 1236.970459 Z"/>
                    <path id="path15" fill="#4226ab" stroke="none" d="M 771.418884 1135.849609 L 157.76532 1027.647461 L 159.400055 1018.388672 L 773.053589 1126.59082 L 771.418884 1135.849609 Z"/>
                    <path id="path16" fill="#4226ab" stroke="none" d="M 159.400055 1135.849609 L 157.76532 1126.59082 L 771.418884 1018.388672 L 773.053589 1027.647461 L 159.400055 1135.849609 Z"/>
                    <path id="path17" fill="#4226ab" stroke="none" d="M 197.941711 1236.970459 L 193.238953 1228.832031 L 732.877197 917.267944 L 737.579956 925.40625 L 197.941711 1236.970459 Z"/>
                    <path id="path18" fill="#4226ab" stroke="none" d="M 268.741486 1318.810791 L 261.540344 1312.76709 L 662.077454 835.42749 L 669.278564 841.471313 L 268.741486 1318.810791 Z"/>
                    <path id="path19" fill="#4226ab" stroke="none" d="M 363.266632 1371.497559 L 354.430756 1368.282959 L 567.55127 782.740845 L 576.388184 785.955322 L 363.266632 1371.497559 Z"/>
                    <path id="path20" fill="#4226ab" stroke="none" d="M 477.560028 1054.098755 L 454.488739 1054.098755 L 457.727692 1476.56958 L 480.798981 1476.56958 L 477.560028 1054.098755 Z"/>
                </g>
                <path id="path21" fill="#4226ab" stroke="none" d="M 845.727173 701.630005 L 845.727173 1484.60083 L 1199.346558 1484.60083 L 1199.346558 769.297852 L 1142.593018 769.297852 L 950.503174 701.630005 L 845.727173 701.630005 Z"/>
                <g id="g6">
                    <path id="path22" fill="#4226ab" stroke="none" d="M 1812.318604 1479.686768 L 1568.244019 1479.686768 L 1568.244019 921.121338 L 1812.318604 921.121338 L 1812.318604 1479.686768 Z"/>
                    <path id="path23" fill="#4226ab" stroke="none" d="M 1736.536255 1475.38623 L 2064.714111 1030.00293 L 2390.76001 1475.38623 L 1736.536255 1475.38623 Z"/>
                    <path id="path24" fill="#4226ab" stroke="none" d="M 1789.22998 960.700806 L 1591.331665 960.700806 L 1591.331665 886.489136 L 1789.22998 886.489136 L 1789.22998 960.700806 Z"/>
                    <path id="path25" fill="#4226ab" stroke="none" d="M 1619.367065 886.489136 L 1690.280762 827.119629 L 1762.843506 886.489136 L 1726.562134 923.594971 L 1619.367065 886.489136 Z"/>
                </g>
                <g id="g7">
                    <path id="path26" fill="#4226ab" stroke="none" d="M 1465.339844 1476.781738 L 1245.919434 1476.781738 L 1245.919434 968.980469 L 1465.339844 968.980469 L 1465.339844 1476.781738 Z"/>
                    <path id="path27" fill="#4226ab" stroke="none" d="M 1438.173096 1096.453369 L 1281.444946 1096.453369 L 1281.444946 927.186279 L 1438.173096 847.7771 L 1438.173096 1096.453369 Z"/>
                    <g id="g8">
                        <path id="path28" fill="#6f56c2" stroke="none" d="M 1427.724854 1023.312988 L 1281.444946 1023.312988 L 1281.444946 1004.505859 L 1427.724854 1004.505859 L 1427.724854 1023.312988 Z"/>
                        <path id="path29" fill="#6f56c2" stroke="none" d="M 1427.724854 1071.376587 L 1281.444946 1071.376587 L 1281.444946 1052.569092 L 1427.724854 1052.569092 L 1427.724854 1071.376587 Z"/>
                        <path id="path30" fill="#6f56c2" stroke="none" d="M 1427.724854 1119.439941 L 1281.444946 1119.439941 L 1281.444946 1100.632568 L 1427.724854 1100.632568 L 1427.724854 1119.439941 Z"/>
                        <path id="path31" fill="#6f56c2" stroke="none" d="M 1427.724854 1167.503784 L 1281.444946 1167.503784 L 1281.444946 1148.696289 L 1427.724854 1148.696289 L 1427.724854 1167.503784 Z"/>
                        <path id="path32" fill="#6f56c2" stroke="none" d="M 1427.724854 1215.567139 L 1281.444946 1215.567139 L 1281.444946 1196.759644 L 1427.724854 1196.759644 L 1427.724854 1215.567139 Z"/>
                        <path id="path33" fill="#6f56c2" stroke="none" d="M 1427.724854 1263.630371 L 1281.444946 1263.630371 L 1281.444946 1244.822876 L 1427.724854 1244.822876 L 1427.724854 1263.630371 Z"/>
                        <path id="path34" fill="#6f56c2" stroke="none" d="M 1427.724854 1311.694092 L 1281.444946 1311.694092 L 1281.444946 1292.886719 L 1427.724854 1292.886719 L 1427.724854 1311.694092 Z"/>
                        <path id="path35" fill="#6f56c2" stroke="none" d="M 1427.724854 1359.757568 L 1281.444946 1359.757568 L 1281.444946 1340.949951 L 1427.724854 1340.949951 L 1427.724854 1359.757568 Z"/>
                        <path id="path36" fill="#6f56c2" stroke="none" d="M 1427.724854 1407.820801 L 1281.444946 1407.820801 L 1281.444946 1389.013672 L 1427.724854 1389.013672 L 1427.724854 1407.820801 Z"/>
                    </g>
                </g>
                <path id="path37" fill="#4226ab" stroke="none" d="M 1245.919434 1271.76123 L 1127.758423 1271.76123 L 1127.758423 1487.68042 L 1245.919434 1487.68042 L 1245.919434 1271.76123 Z"/>
            </g>
            <path id="path38" fill="#b7abe0" stroke="none" d="M 885.276917 399.98877 L 461.287048 399.98877 C 461.287048 399.98877 475.389221 376.432129 563.944092 375.80249 C 569.363037 286.494995 685.848633 271.377075 696.884766 353.757935 C 738.404968 316.977905 757.802979 375.366699 757.802979 375.366699 C 757.802979 375.366699 827.081909 341.669189 885.276917 399.98877 Z"/>
            <path id="path39" fill="#b7abe0" stroke="none" d="M 2289.983643 692.675903 L 2773.179688 692.675903 C 2773.179688 692.675903 2768.958252 628.059937 2701.1521 631.576172 C 2730.337158 488.220825 2469.914307 456.242065 2494.820801 642.658813 C 2419.965332 624.008423 2439.112061 667.601685 2439.112061 667.601685 C 2439.112061 667.601685 2331.814209 642.18335 2289.983643 692.675903 Z"/>
            <path id="path40" fill="#341d7b" stroke="none" d="M 3025.680176 1487.68042 L 99.319077 1487.68042 L 99.319077 1472.762085 L 3025.680176 1472.762085 L 3025.680176 1487.68042 Z"/>
            <g id="g9">
                <g id="g10">
                    <path id="path41" fill="#341d7b" stroke="none" d="M 1027.502075 638.732056 C 1027.502075 638.732056 1056.120483 719.930908 1056.120483 908.842529 C 1056.120483 1097.75415 951.274231 1473.92041 951.274231 1473.92041 L 1156.757202 1473.92041 C 1156.757202 1473.92041 1115.32959 1107.697144 1113.672485 932.042114 C 1112.015381 756.387573 1121.958008 653.645752 1121.958008 653.645752 L 1135.214844 651.98877 L 1135.214844 627.13208 C 1135.214844 627.13208 1170.311157 581.29541 1169.272461 558.46167 C 1168.234863 535.628296 1007.882324 531.99585 1007.882324 561.575439 C 1007.882324 591.155029 1035.90564 623.32959 1035.90564 623.32959 L 1027.502075 638.732056 Z"/>
                    <path id="path42" fill="#341d7b" stroke="none" d="M 1041.613403 557.424072 C 1041.613403 557.424072 1059.25769 507.605835 1083.648315 507.605835 C 1108.037964 507.605835 1127.758423 552.234619 1127.758423 552.234619"/>
                    <path id="path43" fill="#341d7b" stroke="none" d="M 1089.356079 358.150757 L 1080.015747 358.150757 L 1080.015747 613.469604 L 1089.356079 613.469604 L 1089.356079 358.150757 Z"/>
                </g>
                <path id="path44" fill="#341d7b" stroke="none" d="M 2033.050171 1475.200439 L 1667.796509 1475.200439 L 1667.796509 1211.981201 C 1667.796509 1211.981201 1718.074219 1281.213379 1850.423828 1281.213379 C 1982.772461 1281.213379 2033.050171 1211.981201 2033.050171 1211.981201 L 2033.050171 1475.200439 Z"/>
                <g id="g11">
                    <path id="path45" fill="#341d7b" stroke="none" d="M 921.530762 1476.56958 L 546.007935 1476.56958 L 546.007935 1230.960815 L 921.530762 1230.960815 L 921.530762 1476.56958 Z"/>
                    <path id="path46" fill="#341d7b" stroke="none" d="M 921.530762 1312.438232 L 769.922485 1312.438232 L 769.922485 1195.966309 L 921.530762 1195.966309 L 921.530762 1312.438232 Z"/>
                    <path id="path47" fill="#341d7b" stroke="none" d="M 702.281311 1236.304199 L 546.007935 1236.304199 L 546.007935 1156.485107 L 702.281311 1156.485107 L 702.281311 1236.304199 Z"/>
                    <path id="path48" fill="#341d7b" stroke="none" d="M 725.7229 1268.831177 L 592.657104 1268.831177 L 592.657104 1081.682861 L 725.7229 1081.682861 L 725.7229 1268.831177 Z"/>
                    <path id="path49" fill="#341d7b" stroke="none" d="M 679.061523 1316.973633 L 412.438568 1316.973633 L 412.438568 1479.32959 L 679.061523 1479.32959 L 679.061523 1316.973633 Z"/>
                    <path id="path50" fill="#341d7b" stroke="none" d="M 614.417114 1343.348389 L 434.263733 1343.348389 L 496.763733 1206.143799 L 614.417114 1206.143799 L 614.417114 1343.348389 Z"/>
                    <path id="path51" fill="#341d7b" stroke="none" d="M 451.442078 1483.949951 L 221.180847 1483.949951 L 221.180847 1439.77124 L 451.442078 1439.77124 L 451.442078 1483.949951 Z"/>
                    <path id="path52" fill="#341d7b" stroke="none" d="M 354.430756 1449.09668 L 249.67511 1449.09668 L 249.67511 1427.054565 L 354.430756 1427.054565 L 354.430756 1449.09668 Z"/>
                    <path id="path53" fill="#341d7b" stroke="none" d="M 889.479187 1222.881348 L 875.624207 1222.881348 L 875.624207 1125.335938 L 889.479187 1125.335938 L 889.479187 1222.881348 Z"/>
                    <path id="path54" fill="#341d7b" stroke="none" d="M 1245.919434 1476.781738 L 1105.631104 1476.781738 L 1105.631104 1418.584717 L 1245.919434 1418.584717 L 1245.919434 1476.781738 Z"/>
                </g>
                <g id="g12">
                    <path id="path55" fill="#341d7b" stroke="none" d="M 1649.033203 1472.348755 L 1487.453857 1472.348755 L 1487.453857 1393.704102 L 1649.033203 1393.704102 L 1649.033203 1472.348755 Z"/>
                    <path id="path56" fill="#341d7b" stroke="none" d="M 1619.005005 1433.026123 L 1517.482178 1433.026123 L 1539.393799 747.387085 L 1597.093384 747.387085 L 1619.005005 1433.026123 Z"/>
                    <path id="path57" fill="#341d7b" stroke="none" d="M 1539.393799 747.387085 L 1568.244019 701.630005 L 1597.093384 747.387085 L 1577.53772 787.424194 L 1539.393799 747.387085 Z"/>
                </g>
                <g id="g13">
                    <g id="g14">
                        <g id="g15">
                            <path id="path58" fill="#341d7b" stroke="none" d="M 2517.935791 1383.655029 L 2409.939209 1383.655029 L 2409.939209 1487.311646 L 2517.935791 1487.311646 L 2517.935791 1383.655029 Z"/>
                            <path id="path59" fill="#341d7b" stroke="none" d="M 2439.098633 1487.311646 L 2253.925293 1487.311646 L 2253.925293 1453.748413 L 2290.593018 1445.87207 L 2292.42627 1434.666626 L 2343.065918 1434.666626 L 2372.400635 1407.019653 L 2428.099121 1407.019653 L 2451.93335 1453.748413"/>
                        </g>
                        <g id="g16">
                            <path id="path60" fill="#341d7b" stroke="none" d="M 2457.162109 1458.97998 L 2457.162109 975.997925 L 2576.875488 975.997925 L 2576.875488 1486.815918 L 2556.436768 1486.815918 L 2556.436768 1001.622437 L 2477.60083 1001.622437 L 2477.60083 1465.562866"/>
                            <path id="path61" fill="#341d7b" stroke="none" d="M 2847.227539 1435.483398 L 2576.875488 1435.483398 L 2576.875488 1480.221191 L 2847.227539 1480.221191 L 2847.227539 1435.483398 Z"/>
                            <path id="path62" fill="#341d7b" stroke="none" d="M 2523.426025 1034.152588 C 2523.426025 990.394165 2520.557373 954.92041 2517.019287 954.92041 C 2513.480225 954.92041 2510.611572 990.394165 2510.611572 1034.152588 C 2510.611572 1077.911133 2513.480225 1113.384521 2517.019287 1113.384521 C 2520.557373 1113.384521 2523.426025 1077.911133 2523.426025 1034.152588 Z"/>
                            <path id="path63" fill="#341d7b" stroke="none" d="M 2517.019287 1040.559937 C 2560.777344 1040.559937 2596.250977 1037.691162 2596.250977 1034.152588 C 2596.250977 1030.614136 2560.777344 1027.745361 2517.019287 1027.745361 C 2473.26001 1027.745361 2437.787598 1030.614136 2437.787598 1034.152588 C 2437.787598 1037.691162 2473.26001 1040.559937 2517.019287 1040.559937 Z"/>
                            <path id="path64" fill="#341d7b" stroke="none" d="M 2520.452393 1037.585815 C 2543.900146 1014.137939 2561.371582 993.592529 2559.475342 991.696289 C 2557.579102 989.799927 2537.033691 1007.27124 2513.585938 1030.719238 C 2490.137451 1054.16748 2472.666016 1074.712891 2474.562256 1076.609131 C 2476.458252 1078.505371 2497.003906 1061.03418 2520.452393 1037.585815 Z"/>
                            <path id="path65" fill="#341d7b" stroke="none" d="M 2513.585938 1037.585815 C 2537.033691 1061.03418 2557.579102 1078.505371 2559.475342 1076.609131 C 2561.371582 1074.712891 2543.900146 1054.16748 2520.452393 1030.719238 C 2497.003906 1007.27124 2476.458252 989.799927 2474.562256 991.696289 C 2472.666016 993.592529 2490.137451 1014.137939 2513.585938 1037.585815 Z"/>
                            <path id="path66" fill="#341d7b" stroke="none" d="M 2592.313232 1066.96582 L 2534.9646 1088.203735 C 2534.9646 1088.203735 2492.006104 1058.799561 2469.307129 1099.114258 C 2449.226563 1092.28418 2431.765381 1086.172852 2421.288574 1101.014526 C 2410.812012 1115.856689 2441.69873 1117.179565 2441.69873 1117.179565 C 2441.69873 1117.179565 2352.929199 1152.17749 2352.929199 1180.016602 C 2352.929199 1209.223755 2590.157715 1307.16333 2590.157715 1307.16333 C 2590.157715 1307.16333 2835.115234 1209.967896 2835.115234 1184.827515 C 2835.115234 1146.41333 2592.313232 1066.96582 2592.313232 1066.96582 Z"/>
                            <path id="path67" fill="#341d7b" stroke="none" d="M 2480.656494 1115.419922 C 2480.656494 1134.947998 2464.826172 1150.778809 2445.297852 1150.778809 C 2425.769775 1150.778809 2409.939209 1134.947998 2409.939209 1115.419922 C 2409.939209 1095.89209 2425.769775 1080.061646 2445.297852 1080.061646 C 2464.826172 1080.061646 2480.656494 1095.89209 2480.656494 1115.419922 Z"/>
                            <path id="path68" fill="#341d7b" stroke="none" d="M 2717.234863 1113.384521 C 2717.234863 1132.912842 2701.40332 1148.743408 2681.876221 1148.743408 C 2662.348145 1148.743408 2646.517578 1132.912842 2646.517578 1113.384521 C 2646.517578 1093.856689 2662.348145 1078.026245 2681.876221 1078.026245 C 2701.40332 1078.026245 2717.234863 1093.856689 2717.234863 1113.384521 Z"/>
                            <path id="path69" fill="#341d7b" stroke="none" d="M 2787.523926 1113.384521 C 2787.523926 1132.912842 2771.693604 1148.743408 2752.165283 1148.743408 C 2732.638184 1148.743408 2716.806641 1132.912842 2716.806641 1113.384521 C 2716.806641 1093.856689 2732.638184 1078.026245 2752.165283 1078.026245 C 2771.693604 1078.026245 2787.523926 1093.856689 2787.523926 1113.384521 Z"/>
                        </g>
                    </g>
                    <path id="path70" fill="#341d7b" stroke="none" d="M 2940.922607 1480.221191 L 2734.280029 1480.221191 L 2734.280029 1395.73877 L 2940.922607 1395.73877 L 2940.922607 1480.221191 Z"/>
                    <path id="path71" fill="#341d7b" stroke="none" d="M 2915.252197 1407.019653 L 2759.950439 1407.019653 L 2759.950439 1375.202881 L 2915.252197 1375.202881 L 2915.252197 1407.019653 Z"/>
                    <path id="path72" fill="#341d7b" stroke="none" d="M 2940.922607 1375.407471 L 2734.280029 1375.407471 L 2734.280029 1351.653809 L 2940.922607 1351.653809 L 2940.922607 1375.407471 Z"/>
                    <path id="path73" fill="#341d7b" stroke="none" d="M 2868.966309 1316.162109 L 2806.856934 1316.162109 C 2796.179932 1316.162109 2787.523926 1324.817505 2787.523926 1335.494629 L 2787.523926 1363.530762 L 2888.299072 1363.530762 L 2888.299072 1335.494629 C 2888.299072 1324.817505 2879.643311 1316.162109 2868.966309 1316.162109 Z"/>
                </g>
            </g>
        </g>
    </g>
    <g id="TEXTS">
        <text id="LAS-VEGAS" xml:space="preserve" x="1090.376353" y="1679" font-family="Beirut" font-size="137.5" font-weight="700" fill="#331d7a" letter-spacing="14.19">LAS VEGAS</text>
    </g>
</svg>
